<svg viewBox="0 0 320 80" xmlns="http://www.w3.org/2000/svg" fill="none">
  <defs>
    <linearGradient id="logo-bright" x1="0" y1="0" x2="64" y2="0" gradientUnits="userSpaceOnUse">
      <stop offset="0%"   stop-color="#F4E4BC"/>
      <stop offset="50%"  stop-color="#E5C77E"/>
      <stop offset="100%" stop-color="#A37A2E"/>
    </linearGradient>
    <linearGradient id="logo-mid" x1="0" y1="0" x2="64" y2="0" gradientUnits="userSpaceOnUse">
      <stop offset="0%"   stop-color="#D4A85C"/>
      <stop offset="100%" stop-color="#9B7128"/>
    </linearGradient>
    <linearGradient id="logo-deep" x1="0" y1="0" x2="64" y2="0" gradientUnits="userSpaceOnUse">
      <stop offset="0%"   stop-color="#A37A2E"/>
      <stop offset="100%" stop-color="#6B4D17"/>
    </linearGradient>
    <linearGradient id="logo-word" x1="0" y1="0" x2="220" y2="0" gradientUnits="userSpaceOnUse">
      <stop offset="0%"   stop-color="#F4E4BC"/>
      <stop offset="60%"  stop-color="#D4A85C"/>
      <stop offset="100%" stop-color="#9B7128"/>
    </linearGradient>
  </defs>
  <g transform="translate(8 8)" stroke-linejoin="miter" stroke-linecap="square">
    <path d="M16 44 L32 38 L48 44 L48 50 L32 56 L16 50 Z" fill="url(#logo-deep)" stroke="#6B4D17" stroke-width="1"/>
    <path d="M12 32 L32 24 L52 32 L52 38 L32 46 L12 38 Z" fill="url(#logo-mid)" stroke="#7A5A1F" stroke-width="1"/>
    <path d="M10 20 L32 10 L54 20 L54 26 L32 36 L10 26 Z" fill="url(#logo-bright)" stroke="#8C6826" stroke-width="1"/>
    <path d="M10 20 L32 10 L54 20 L32 30 Z" fill="#F4E4BC" fill-opacity="0.35"/>
    <path d="M32 10 L32 56" stroke="#6B4D17" stroke-width="0.6" stroke-opacity="0.5"/>
  </g>
  <text x="92" y="46" font-family="Cormorant Garamond, Georgia, serif" font-size="36" font-weight="600" letter-spacing="8" fill="url(#logo-word)">AURUM</text>
  <text x="94" y="64" font-family="JetBrains Mono, monospace" font-size="10" letter-spacing="6" fill="#8C9BB3">A · U · R · X</text>
</svg>
